<mxfile host="Electron" modified="2024-04-30T07:44:16.004Z" agent="Mozilla/5.0 (Macintosh; Intel Mac OS X 10_15_7) AppleWebKit/537.36 (KHTML, like Gecko) draw.io/24.2.5 Chrome/120.0.6099.109 Electron/28.1.0 Safari/537.36" etag="NpC8rzu7NcZPatkC6Poe" version="24.2.5" type="device">
  <diagram name="페이지-1" id="ERcxUjfUq2ZzsK2orpbW">
    <mxGraphModel dx="2579" dy="1271" grid="1" gridSize="10" guides="1" tooltips="1" connect="1" arrows="1" fold="1" page="1" pageScale="1" pageWidth="827" pageHeight="1169" math="0" shadow="0">
      <root>
        <mxCell id="0" />
        <mxCell id="1" parent="0" />
        <mxCell id="f_an6u7OPHk52uV8rDp6-64" value="" style="html=1;align=center;verticalAlign=middle;rounded=1;absoluteArcSize=1;arcSize=10;dashed=0;whiteSpace=wrap;" vertex="1" parent="1">
          <mxGeometry x="-140" y="200" width="1400" height="360" as="geometry" />
        </mxCell>
        <mxCell id="f_an6u7OPHk52uV8rDp6-66" value="상담원 문의" style="html=1;align=center;verticalAlign=top;rounded=1;absoluteArcSize=1;arcSize=10;dashed=0;whiteSpace=wrap;" vertex="1" parent="1">
          <mxGeometry x="120" y="370" width="80" height="30" as="geometry" />
        </mxCell>
        <mxCell id="f_an6u7OPHk52uV8rDp6-68" value="" style="ellipse;fillColor=strokeColor;html=1;" vertex="1" parent="1">
          <mxGeometry x="-110" y="370" width="30" height="30" as="geometry" />
        </mxCell>
        <mxCell id="f_an6u7OPHk52uV8rDp6-73" value="" style="endArrow=open;startArrow=none;endFill=0;startFill=0;endSize=8;html=1;verticalAlign=bottom;labelBackgroundColor=none;strokeWidth=1;rounded=0;exitX=1;exitY=0.5;exitDx=0;exitDy=0;entryX=0;entryY=0.5;entryDx=0;entryDy=0;" edge="1" parent="1" source="f_an6u7OPHk52uV8rDp6-143" target="f_an6u7OPHk52uV8rDp6-66">
          <mxGeometry width="160" relative="1" as="geometry">
            <mxPoint x="100" y="360" as="sourcePoint" />
            <mxPoint x="120" y="370" as="targetPoint" />
          </mxGeometry>
        </mxCell>
        <mxCell id="f_an6u7OPHk52uV8rDp6-75" value="" style="endArrow=open;startArrow=none;endFill=0;startFill=0;endSize=8;html=1;verticalAlign=bottom;labelBackgroundColor=none;strokeWidth=1;rounded=0;exitX=1;exitY=0.5;exitDx=0;exitDy=0;entryX=0;entryY=0.5;entryDx=0;entryDy=0;" edge="1" parent="1" source="f_an6u7OPHk52uV8rDp6-68" target="f_an6u7OPHk52uV8rDp6-143">
          <mxGeometry width="160" relative="1" as="geometry">
            <mxPoint x="120" y="380" as="sourcePoint" />
            <mxPoint x="55" y="360" as="targetPoint" />
          </mxGeometry>
        </mxCell>
        <mxCell id="f_an6u7OPHk52uV8rDp6-76" value="" style="endArrow=open;startArrow=none;endFill=0;startFill=0;endSize=8;html=1;verticalAlign=bottom;labelBackgroundColor=none;strokeWidth=1;rounded=0;exitX=1;exitY=0.5;exitDx=0;exitDy=0;entryX=0;entryY=0.5;entryDx=0;entryDy=0;" edge="1" parent="1" source="f_an6u7OPHk52uV8rDp6-66" target="f_an6u7OPHk52uV8rDp6-116">
          <mxGeometry width="160" relative="1" as="geometry">
            <mxPoint x="165" y="440" as="sourcePoint" />
            <mxPoint x="250" y="385" as="targetPoint" />
          </mxGeometry>
        </mxCell>
        <mxCell id="f_an6u7OPHk52uV8rDp6-80" value="주문 등록" style="html=1;align=center;verticalAlign=top;rounded=1;absoluteArcSize=1;arcSize=10;dashed=0;whiteSpace=wrap;" vertex="1" parent="1">
          <mxGeometry x="350" y="370" width="70" height="30" as="geometry" />
        </mxCell>
        <mxCell id="f_an6u7OPHk52uV8rDp6-81" value="" style="endArrow=open;startArrow=none;endFill=0;startFill=0;endSize=8;html=1;verticalAlign=bottom;labelBackgroundColor=none;strokeWidth=1;rounded=0;entryX=0;entryY=0.5;entryDx=0;entryDy=0;exitX=1;exitY=0.5;exitDx=0;exitDy=0;" edge="1" parent="1" source="f_an6u7OPHk52uV8rDp6-116" target="f_an6u7OPHk52uV8rDp6-80">
          <mxGeometry width="160" relative="1" as="geometry">
            <mxPoint x="320" y="380" as="sourcePoint" />
            <mxPoint x="260" y="395" as="targetPoint" />
          </mxGeometry>
        </mxCell>
        <mxCell id="f_an6u7OPHk52uV8rDp6-83" value="" style="html=1;points=[];perimeter=orthogonalPerimeter;fillColor=strokeColor;" vertex="1" parent="1">
          <mxGeometry x="470" y="345" width="5" height="80" as="geometry" />
        </mxCell>
        <mxCell id="f_an6u7OPHk52uV8rDp6-84" value="" style="endArrow=open;startArrow=none;endFill=0;startFill=0;endSize=8;html=1;verticalAlign=bottom;labelBackgroundColor=none;strokeWidth=1;rounded=0;exitX=1;exitY=0.5;exitDx=0;exitDy=0;entryX=0;entryY=0.491;entryDx=0;entryDy=0;entryPerimeter=0;" edge="1" parent="1" source="f_an6u7OPHk52uV8rDp6-80" target="f_an6u7OPHk52uV8rDp6-83">
          <mxGeometry width="160" relative="1" as="geometry">
            <mxPoint x="290" y="395" as="sourcePoint" />
            <mxPoint x="360" y="395" as="targetPoint" />
          </mxGeometry>
        </mxCell>
        <mxCell id="f_an6u7OPHk52uV8rDp6-85" value="재고 조회" style="html=1;align=center;verticalAlign=top;rounded=1;absoluteArcSize=1;arcSize=10;dashed=0;whiteSpace=wrap;" vertex="1" parent="1">
          <mxGeometry x="530" y="350" width="70" height="30" as="geometry" />
        </mxCell>
        <mxCell id="f_an6u7OPHk52uV8rDp6-86" value="카드 조회" style="html=1;align=center;verticalAlign=top;rounded=1;absoluteArcSize=1;arcSize=10;dashed=0;whiteSpace=wrap;" vertex="1" parent="1">
          <mxGeometry x="530" y="400" width="70" height="30" as="geometry" />
        </mxCell>
        <mxCell id="f_an6u7OPHk52uV8rDp6-87" value="" style="endArrow=open;startArrow=none;endFill=0;startFill=0;endSize=8;html=1;verticalAlign=bottom;labelBackgroundColor=none;strokeWidth=1;rounded=0;exitX=1.176;exitY=0.249;exitDx=0;exitDy=0;entryX=0;entryY=0.5;entryDx=0;entryDy=0;exitPerimeter=0;" edge="1" parent="1" source="f_an6u7OPHk52uV8rDp6-83" target="f_an6u7OPHk52uV8rDp6-85">
          <mxGeometry width="160" relative="1" as="geometry">
            <mxPoint x="430" y="395" as="sourcePoint" />
            <mxPoint x="480" y="394" as="targetPoint" />
          </mxGeometry>
        </mxCell>
        <mxCell id="f_an6u7OPHk52uV8rDp6-88" value="" style="endArrow=open;startArrow=none;endFill=0;startFill=0;endSize=8;html=1;verticalAlign=bottom;labelBackgroundColor=none;strokeWidth=1;rounded=0;exitX=0.824;exitY=0.874;exitDx=0;exitDy=0;entryX=0;entryY=0.5;entryDx=0;entryDy=0;exitPerimeter=0;" edge="1" parent="1" source="f_an6u7OPHk52uV8rDp6-83" target="f_an6u7OPHk52uV8rDp6-86">
          <mxGeometry width="160" relative="1" as="geometry">
            <mxPoint x="486" y="375" as="sourcePoint" />
            <mxPoint x="540" y="375" as="targetPoint" />
          </mxGeometry>
        </mxCell>
        <mxCell id="f_an6u7OPHk52uV8rDp6-89" value="" style="rhombus;" vertex="1" parent="1">
          <mxGeometry x="620" y="350" width="30" height="30" as="geometry" />
        </mxCell>
        <mxCell id="f_an6u7OPHk52uV8rDp6-90" value="" style="rhombus;" vertex="1" parent="1">
          <mxGeometry x="620" y="400" width="30" height="30" as="geometry" />
        </mxCell>
        <mxCell id="f_an6u7OPHk52uV8rDp6-91" value="" style="endArrow=open;startArrow=none;endFill=0;startFill=0;endSize=8;html=1;verticalAlign=bottom;labelBackgroundColor=none;strokeWidth=1;rounded=0;exitX=1;exitY=0.5;exitDx=0;exitDy=0;entryX=0;entryY=0.5;entryDx=0;entryDy=0;" edge="1" parent="1" source="f_an6u7OPHk52uV8rDp6-85" target="f_an6u7OPHk52uV8rDp6-89">
          <mxGeometry width="160" relative="1" as="geometry">
            <mxPoint x="486" y="375" as="sourcePoint" />
            <mxPoint x="540" y="375" as="targetPoint" />
          </mxGeometry>
        </mxCell>
        <mxCell id="f_an6u7OPHk52uV8rDp6-92" value="" style="endArrow=open;startArrow=none;endFill=0;startFill=0;endSize=8;html=1;verticalAlign=bottom;labelBackgroundColor=none;strokeWidth=1;rounded=0;exitX=1;exitY=0.5;exitDx=0;exitDy=0;entryX=0;entryY=0.5;entryDx=0;entryDy=0;" edge="1" parent="1" source="f_an6u7OPHk52uV8rDp6-86" target="f_an6u7OPHk52uV8rDp6-90">
          <mxGeometry width="160" relative="1" as="geometry">
            <mxPoint x="496" y="385" as="sourcePoint" />
            <mxPoint x="550" y="385" as="targetPoint" />
          </mxGeometry>
        </mxCell>
        <mxCell id="f_an6u7OPHk52uV8rDp6-93" value="입고 요청" style="html=1;align=center;verticalAlign=top;rounded=1;absoluteArcSize=1;arcSize=10;dashed=0;whiteSpace=wrap;" vertex="1" parent="1">
          <mxGeometry x="600" y="290" width="70" height="30" as="geometry" />
        </mxCell>
        <mxCell id="f_an6u7OPHk52uV8rDp6-94" value="주문 취소" style="html=1;align=center;verticalAlign=top;rounded=1;absoluteArcSize=1;arcSize=10;dashed=0;whiteSpace=wrap;" vertex="1" parent="1">
          <mxGeometry x="600" y="460" width="70" height="30" as="geometry" />
        </mxCell>
        <mxCell id="f_an6u7OPHk52uV8rDp6-97" value="[카드 유효 확인]" style="text;html=1;align=center;verticalAlign=middle;whiteSpace=wrap;rounded=0;" vertex="1" parent="1">
          <mxGeometry x="650" y="420" width="80" height="30" as="geometry" />
        </mxCell>
        <mxCell id="f_an6u7OPHk52uV8rDp6-98" value="[재고 확인]" style="text;html=1;align=center;verticalAlign=middle;whiteSpace=wrap;rounded=0;" vertex="1" parent="1">
          <mxGeometry x="630" y="360" width="80" height="30" as="geometry" />
        </mxCell>
        <mxCell id="f_an6u7OPHk52uV8rDp6-100" value="" style="endArrow=open;startArrow=none;endFill=0;startFill=0;endSize=8;html=1;verticalAlign=bottom;labelBackgroundColor=none;strokeWidth=1;rounded=0;exitX=0.5;exitY=0;exitDx=0;exitDy=0;entryX=0.5;entryY=1;entryDx=0;entryDy=0;" edge="1" parent="1">
          <mxGeometry width="160" relative="1" as="geometry">
            <mxPoint x="635" y="250" as="sourcePoint" />
            <mxPoint x="635" y="250" as="targetPoint" />
          </mxGeometry>
        </mxCell>
        <mxCell id="f_an6u7OPHk52uV8rDp6-108" value="" style="ellipse;html=1;shape=endState;fillColor=strokeColor;" vertex="1" parent="1">
          <mxGeometry x="1211" y="390" width="30" height="30" as="geometry" />
        </mxCell>
        <mxCell id="f_an6u7OPHk52uV8rDp6-112" value="취소 통보" style="html=1;align=center;verticalAlign=top;rounded=1;absoluteArcSize=1;arcSize=10;dashed=0;whiteSpace=wrap;" vertex="1" parent="1">
          <mxGeometry x="600" y="520" width="70" height="30" as="geometry" />
        </mxCell>
        <mxCell id="f_an6u7OPHk52uV8rDp6-113" value="" style="endArrow=open;startArrow=none;endFill=0;startFill=0;endSize=8;html=1;verticalAlign=bottom;labelBackgroundColor=none;strokeWidth=1;rounded=0;exitX=0.5;exitY=1;exitDx=0;exitDy=0;entryX=0.5;entryY=0;entryDx=0;entryDy=0;" edge="1" parent="1" source="f_an6u7OPHk52uV8rDp6-94" target="f_an6u7OPHk52uV8rDp6-112">
          <mxGeometry width="160" relative="1" as="geometry">
            <mxPoint x="645" y="440" as="sourcePoint" />
            <mxPoint x="645" y="470" as="targetPoint" />
          </mxGeometry>
        </mxCell>
        <mxCell id="f_an6u7OPHk52uV8rDp6-116" value="주문 확인" style="html=1;align=center;verticalAlign=top;rounded=1;absoluteArcSize=1;arcSize=10;dashed=0;whiteSpace=wrap;" vertex="1" parent="1">
          <mxGeometry x="240" y="370" width="70" height="30" as="geometry" />
        </mxCell>
        <mxCell id="f_an6u7OPHk52uV8rDp6-118" value="[unVaild]" style="endArrow=open;html=1;rounded=0;align=center;verticalAlign=bottom;endFill=0;labelBackgroundColor=none;entryX=0.5;entryY=0;entryDx=0;entryDy=0;" edge="1" parent="1" target="f_an6u7OPHk52uV8rDp6-94">
          <mxGeometry x="0.3333" y="-25" relative="1" as="geometry">
            <mxPoint x="635" y="430" as="sourcePoint" />
            <mxPoint x="760" y="599.7" as="targetPoint" />
            <mxPoint as="offset" />
          </mxGeometry>
        </mxCell>
        <mxCell id="f_an6u7OPHk52uV8rDp6-120" value="" style="html=1;points=[];perimeter=orthogonalPerimeter;fillColor=strokeColor;" vertex="1" parent="1">
          <mxGeometry x="850" y="355" width="5" height="80" as="geometry" />
        </mxCell>
        <mxCell id="f_an6u7OPHk52uV8rDp6-122" value="[Vaild]" style="endArrow=open;html=1;rounded=0;align=center;verticalAlign=bottom;endFill=0;labelBackgroundColor=none;exitX=1;exitY=0.5;exitDx=0;exitDy=0;entryX=-0.038;entryY=0.75;entryDx=0;entryDy=0;entryPerimeter=0;" edge="1" parent="1" source="f_an6u7OPHk52uV8rDp6-90" target="f_an6u7OPHk52uV8rDp6-120">
          <mxGeometry x="0.3333" y="-25" relative="1" as="geometry">
            <mxPoint x="749.69" y="395" as="sourcePoint" />
            <mxPoint x="749.69" y="425" as="targetPoint" />
            <mxPoint as="offset" />
          </mxGeometry>
        </mxCell>
        <mxCell id="f_an6u7OPHk52uV8rDp6-123" value="[재고 없음]" style="endArrow=open;html=1;rounded=0;align=center;verticalAlign=bottom;endFill=0;labelBackgroundColor=none;entryX=0.5;entryY=1;entryDx=0;entryDy=0;exitX=0.5;exitY=0;exitDx=0;exitDy=0;" edge="1" parent="1" source="f_an6u7OPHk52uV8rDp6-89" target="f_an6u7OPHk52uV8rDp6-93">
          <mxGeometry x="-1" y="-25" relative="1" as="geometry">
            <mxPoint x="645" y="440" as="sourcePoint" />
            <mxPoint x="645" y="470" as="targetPoint" />
            <mxPoint as="offset" />
          </mxGeometry>
        </mxCell>
        <mxCell id="f_an6u7OPHk52uV8rDp6-124" value="" style="endArrow=open;startArrow=none;endFill=0;startFill=0;endSize=8;html=1;verticalAlign=bottom;labelBackgroundColor=none;strokeWidth=1;rounded=0;exitX=0.5;exitY=0;exitDx=0;exitDy=0;entryX=0.5;entryY=1;entryDx=0;entryDy=0;" edge="1" parent="1" source="f_an6u7OPHk52uV8rDp6-93" target="f_an6u7OPHk52uV8rDp6-125">
          <mxGeometry width="160" relative="1" as="geometry">
            <mxPoint x="610" y="375" as="sourcePoint" />
            <mxPoint x="630" y="375" as="targetPoint" />
          </mxGeometry>
        </mxCell>
        <mxCell id="f_an6u7OPHk52uV8rDp6-125" value="" style="shape=sumEllipse;perimeter=ellipsePerimeter;html=1;backgroundOutline=1;" vertex="1" parent="1">
          <mxGeometry x="620" y="240" width="30" height="30" as="geometry" />
        </mxCell>
        <mxCell id="f_an6u7OPHk52uV8rDp6-126" value="입고대기" style="text;html=1;align=center;verticalAlign=middle;whiteSpace=wrap;rounded=0;" vertex="1" parent="1">
          <mxGeometry x="605" y="210" width="60" height="30" as="geometry" />
        </mxCell>
        <mxCell id="f_an6u7OPHk52uV8rDp6-127" value="[입고 통보]" style="endArrow=open;html=1;rounded=0;align=center;verticalAlign=bottom;endFill=0;labelBackgroundColor=none;entryX=0.5;entryY=0;entryDx=0;entryDy=0;exitX=0;exitY=0.5;exitDx=0;exitDy=0;dashed=1;" edge="1" parent="1" source="f_an6u7OPHk52uV8rDp6-125" target="f_an6u7OPHk52uV8rDp6-89">
          <mxGeometry x="-0.2491" y="3" relative="1" as="geometry">
            <mxPoint x="645" y="360" as="sourcePoint" />
            <mxPoint x="645" y="330" as="targetPoint" />
            <mxPoint as="offset" />
            <Array as="points">
              <mxPoint x="550" y="300" />
            </Array>
          </mxGeometry>
        </mxCell>
        <mxCell id="f_an6u7OPHk52uV8rDp6-129" value="[재고 있음]" style="endArrow=open;html=1;rounded=0;align=center;verticalAlign=bottom;endFill=0;labelBackgroundColor=none;entryX=-0.288;entryY=0.133;entryDx=0;entryDy=0;exitX=1;exitY=0.5;exitDx=0;exitDy=0;entryPerimeter=0;" edge="1" parent="1" source="f_an6u7OPHk52uV8rDp6-89" target="f_an6u7OPHk52uV8rDp6-120">
          <mxGeometry x="0.0071" y="5" relative="1" as="geometry">
            <mxPoint x="645" y="360" as="sourcePoint" />
            <mxPoint x="645" y="330" as="targetPoint" />
            <mxPoint as="offset" />
          </mxGeometry>
        </mxCell>
        <mxCell id="f_an6u7OPHk52uV8rDp6-131" value="" style="endArrow=open;startArrow=none;endFill=0;startFill=0;endSize=8;html=1;verticalAlign=bottom;labelBackgroundColor=none;strokeWidth=1;rounded=0;exitX=1.087;exitY=0.531;exitDx=0;exitDy=0;exitPerimeter=0;entryX=0;entryY=0.5;entryDx=0;entryDy=0;" edge="1" parent="1" source="f_an6u7OPHk52uV8rDp6-120" target="f_an6u7OPHk52uV8rDp6-132">
          <mxGeometry width="160" relative="1" as="geometry">
            <mxPoint x="610" y="425" as="sourcePoint" />
            <mxPoint x="630" y="425" as="targetPoint" />
          </mxGeometry>
        </mxCell>
        <mxCell id="f_an6u7OPHk52uV8rDp6-132" value="카드 결제" style="html=1;align=center;verticalAlign=top;rounded=1;absoluteArcSize=1;arcSize=10;dashed=0;whiteSpace=wrap;" vertex="1" parent="1">
          <mxGeometry x="940" y="440" width="70" height="30" as="geometry" />
        </mxCell>
        <mxCell id="f_an6u7OPHk52uV8rDp6-133" value="상품 배송" style="html=1;align=center;verticalAlign=top;rounded=1;absoluteArcSize=1;arcSize=10;dashed=0;whiteSpace=wrap;" vertex="1" parent="1">
          <mxGeometry x="940" y="360" width="70" height="30" as="geometry" />
        </mxCell>
        <mxCell id="f_an6u7OPHk52uV8rDp6-134" value="" style="endArrow=open;startArrow=none;endFill=0;startFill=0;endSize=8;html=1;verticalAlign=bottom;labelBackgroundColor=none;strokeWidth=1;rounded=0;exitX=1.063;exitY=0.529;exitDx=0;exitDy=0;exitPerimeter=0;entryX=0;entryY=0.5;entryDx=0;entryDy=0;" edge="1" parent="1" source="f_an6u7OPHk52uV8rDp6-120" target="f_an6u7OPHk52uV8rDp6-133">
          <mxGeometry width="160" relative="1" as="geometry">
            <mxPoint x="865" y="407" as="sourcePoint" />
            <mxPoint x="950" y="465" as="targetPoint" />
          </mxGeometry>
        </mxCell>
        <mxCell id="f_an6u7OPHk52uV8rDp6-135" value="결제완료 통보" style="html=1;align=center;verticalAlign=top;rounded=1;absoluteArcSize=1;arcSize=10;dashed=0;whiteSpace=wrap;" vertex="1" parent="1">
          <mxGeometry x="1060" y="440" width="70" height="30" as="geometry" />
        </mxCell>
        <mxCell id="f_an6u7OPHk52uV8rDp6-137" value="" style="endArrow=open;startArrow=none;endFill=0;startFill=0;endSize=8;html=1;verticalAlign=bottom;labelBackgroundColor=none;strokeWidth=1;rounded=0;exitX=1;exitY=0.5;exitDx=0;exitDy=0;entryX=0;entryY=0.5;entryDx=0;entryDy=0;" edge="1" parent="1" source="f_an6u7OPHk52uV8rDp6-132" target="f_an6u7OPHk52uV8rDp6-135">
          <mxGeometry width="160" relative="1" as="geometry">
            <mxPoint x="865" y="407" as="sourcePoint" />
            <mxPoint x="950" y="465" as="targetPoint" />
          </mxGeometry>
        </mxCell>
        <mxCell id="f_an6u7OPHk52uV8rDp6-138" value="[배송 완료 처리]" style="endArrow=open;html=1;rounded=0;align=center;verticalAlign=bottom;endFill=0;labelBackgroundColor=none;entryX=0;entryY=0;entryDx=0;entryDy=0;exitX=1;exitY=0.5;exitDx=0;exitDy=0;" edge="1" parent="1" source="f_an6u7OPHk52uV8rDp6-133" target="f_an6u7OPHk52uV8rDp6-108">
          <mxGeometry x="0.0071" y="5" relative="1" as="geometry">
            <mxPoint x="660" y="375" as="sourcePoint" />
            <mxPoint x="859" y="376" as="targetPoint" />
            <mxPoint as="offset" />
          </mxGeometry>
        </mxCell>
        <mxCell id="f_an6u7OPHk52uV8rDp6-139" value="" style="endArrow=open;startArrow=none;endFill=0;startFill=0;endSize=8;html=1;verticalAlign=bottom;labelBackgroundColor=none;strokeWidth=1;rounded=0;exitX=1;exitY=0.5;exitDx=0;exitDy=0;entryX=0;entryY=1;entryDx=0;entryDy=0;" edge="1" parent="1" source="f_an6u7OPHk52uV8rDp6-135" target="f_an6u7OPHk52uV8rDp6-108">
          <mxGeometry width="160" relative="1" as="geometry">
            <mxPoint x="1020" y="465" as="sourcePoint" />
            <mxPoint x="1070" y="465" as="targetPoint" />
          </mxGeometry>
        </mxCell>
        <mxCell id="f_an6u7OPHk52uV8rDp6-140" value="" style="endArrow=open;startArrow=none;endFill=0;startFill=0;endSize=8;html=1;verticalAlign=bottom;labelBackgroundColor=none;strokeWidth=1;rounded=0;exitX=1;exitY=0.5;exitDx=0;exitDy=0;entryX=0.5;entryY=1;entryDx=0;entryDy=0;" edge="1" parent="1" source="f_an6u7OPHk52uV8rDp6-112" target="f_an6u7OPHk52uV8rDp6-108">
          <mxGeometry width="160" relative="1" as="geometry">
            <mxPoint x="1030" y="475" as="sourcePoint" />
            <mxPoint x="1080" y="475" as="targetPoint" />
            <Array as="points">
              <mxPoint x="1090" y="530" />
            </Array>
          </mxGeometry>
        </mxCell>
        <mxCell id="f_an6u7OPHk52uV8rDp6-141" value="종료" style="text;html=1;align=center;verticalAlign=middle;whiteSpace=wrap;rounded=0;" vertex="1" parent="1">
          <mxGeometry x="1196" y="350" width="60" height="30" as="geometry" />
        </mxCell>
        <mxCell id="f_an6u7OPHk52uV8rDp6-142" value="시작" style="text;html=1;align=center;verticalAlign=middle;whiteSpace=wrap;rounded=0;" vertex="1" parent="1">
          <mxGeometry x="-125" y="400" width="60" height="30" as="geometry" />
        </mxCell>
        <mxCell id="f_an6u7OPHk52uV8rDp6-143" value="상담원 문의" style="html=1;align=center;verticalAlign=top;rounded=1;absoluteArcSize=1;arcSize=10;dashed=0;whiteSpace=wrap;" vertex="1" parent="1">
          <mxGeometry x="10" y="370" width="80" height="30" as="geometry" />
        </mxCell>
      </root>
    </mxGraphModel>
  </diagram>
</mxfile>
